<?xml version="1.0" encoding="utf-8"?>
<!-- Generator: Adobe Illustrator 24.0.3, SVG Export Plug-In . SVG Version: 6.00 Build 0)  -->
<svg version="1.1" id="Layer_1" xmlns="http://www.w3.org/2000/svg" xmlns:xlink="http://www.w3.org/1999/xlink" x="0px" y="0px"
	 viewBox="0 0 148 148" style="enable-background:new 0 0 148 148;" xml:space="preserve">
<style type="text/css">
	.st0{fill:#F9F3FF;}
	.st1{fill:#DABCED;}
	.st2{fill:#AF89C6;}
	.st3{fill:#783F91;}
	.st4{fill:none;stroke:#783F91;stroke-width:3;stroke-miterlimit:10;}
</style>
<title>steteskop2</title>
<g id="Layer_2_1_">
	<g id="Layer_1-2">
		<circle class="st0" cx="74" cy="74" r="74"/>
		<path class="st1" d="M46,101.7c0,0,4.1-6.1,8.1-5.1s8.1-6.1,8.1-6.1l1,4.1l1,2l-1,5.1l-2,2c0,0-2,2-3,2s-6.1,1-6.1,1l-2-1l-3-2
			L46,101.7z"/>
		<path class="st2" d="M52.1,68.1c0,0,1-2,5.1-1l4.1,3c0,0,2,3,3.1,3s4.1,2,4.1,2h2c1,0,1,0,2-1s5.1-1,5.1-1l3,1L83,75
			c0.9-0.4,1.8-0.6,2.7-0.8c1.4-0.2,2.7-0.5,4.1-1l2-3l2-2c0,0,3.1-2,6.1-1l-3,4.1l-6.1,6.1l-5.1,2l-3,1c-0.5,0.5-0.9,1.2-1,2
			c0,1,0,2-1,2s-2,1-3,1h-3c-1,0-1,1-2,0c-0.6-0.9-1-1.9-1-3l-1-1c0-0.6-0.4-1-1-1h-2c0-0.6-0.4-1-1-1c-1,0-4.1-2-4.1-2l-2-1
			c-1.1-0.5-2.1-1.2-3-2l-2-2c-1-1,0-2-1-2S52.1,68.1,52.1,68.1z"/>
		<path class="st3" d="M76.3,87c-0.5,0-1.1-0.1-1.6-0.2v20.4c0,5.1-4.2,9.3-9.4,9.3c-5,0-9-3.9-9.3-8.9c5.4-0.9,9.3-5.5,9.4-11
			c0-6.2-4.9-11.2-11.1-11.3c0,0-0.1,0-0.1,0c-0.5,0-0.9,0-1.4,0.1c-6.1,0.8-10.5,6.4-9.7,12.5c0.3,2.4,1.4,4.7,3.1,6.5
			c1.8,1.8,4.1,2.9,6.6,3.2c0.1,3.2,1.4,6.1,3.7,8.4c4.9,4.9,12.8,4.9,17.7,0c2.3-2.3,3.6-5.4,3.7-8.7V86.8
			C77.4,86.9,76.8,87,76.3,87z M52.9,104.9c-4.6-0.8-7.7-5.1-7-9.7c0.6-3.6,3.4-6.4,7-7c0.4-0.1,0.9-0.1,1.3-0.1
			c0.6,0,1.2,0.1,1.8,0.2c4.6,1,7.4,5.6,6.4,10.1c-0.7,3.2-3.2,5.6-6.4,6.4C55,105,53.9,105.1,52.9,104.9z"/>
		<path class="st3" d="M56.1,90c-0.6-0.2-1.2-0.3-1.8-0.3c-0.5,0-0.9,0-1.3,0.1c-3.7,0.8-6.1,4.4-5.3,8.1c0.7,3.2,3.4,5.5,6.7,5.5
			c0.6,0,1.2-0.1,1.8-0.2c3.6-1,5.8-4.8,4.8-8.5C60.2,92.4,58.4,90.6,56.1,90z M56.1,100.1c-0.6,0.3-1.2,0.5-1.8,0.5
			c-0.5,0-0.9-0.1-1.3-0.2c-2.1-0.8-3.1-3.1-2.3-5.2c0.4-1.1,1.2-1.9,2.3-2.3c0.4-0.2,0.9-0.2,1.3-0.2c2.2,0,4,1.9,3.9,4.1
			C58.1,98.1,57.3,99.4,56.1,100.1z"/>
		<path class="st3" d="M84.2,78.8c0-0.7-0.1-1.3-0.3-1.9c-0.1-0.4-0.3-0.8-0.5-1.2c0-0.1,0-0.1-0.1-0.2S83.1,75.1,83,75
			c0-0.1-0.1-0.1-0.1-0.2c-0.1-0.2-0.2-0.3-0.3-0.5c-2.6-3.4-7.6-4.1-11-1.5c-0.5,0.4-1,0.9-1.5,1.5c-0.3,0.3-0.5,0.6-0.7,1
			c-0.1,0.1-0.1,0.2-0.2,0.3c-0.2,0.4-0.4,0.8-0.5,1.2c-0.2,0.7-0.3,1.4-0.3,2.2c0,0.3,0,0.5,0,0.8c0,0.2,0.1,0.5,0.1,0.7
			c0,0.2,0.1,0.4,0.1,0.6c0,0.2,0.1,0.4,0.2,0.5c0,0,0,0.1,0,0.1l0,0c0.9,2.5,3.1,4.4,5.8,5c0.5,0.1,1.1,0.2,1.6,0.2
			c0.5,0,1.1-0.1,1.6-0.2c2.6-0.5,4.8-2.3,5.8-4.8c0.1-0.2,0.2-0.5,0.2-0.7c0.1-0.2,0.1-0.4,0.2-0.6c0-0.1,0-0.2,0-0.3
			c0-0.2,0.1-0.4,0.1-0.6c0-0.3,0-0.5,0-0.8C84.2,79,84.2,78.9,84.2,78.8z M76.3,84.1c-2.8,0-5-2.2-5-5s2.2-5,5-5s5,2.2,5,5
			C81.3,81.8,79.1,84.1,76.3,84.1C76.3,84.1,76.3,84.1,76.3,84.1z"/>
		<path class="st3" d="M102.6,51.8h-3c-1.3,0-2.3,1-2.3,2.3c0,8.4-5,16.1-12.8,19.4c-0.7,0.3-1.3,0.5-2,0.8c0.6,0.8,1,1.7,1.3,2.6
			c0.6-0.2,1.2-0.4,1.8-0.7c2.8-1.2,5.4-3,7.5-5.2c4.3-4.4,6.8-10.2,6.9-16.3h1.9C101.9,64.9,95.7,74,86.3,78
			c-0.7,0.3-1.5,0.6-2.2,0.8c0,0.1,0,0.2,0,0.3c0,1-0.2,2-0.6,2.9C96.2,78.7,105,67.3,105,54.2C105,52.9,103.9,51.8,102.6,51.8
			L102.6,51.8z"/>
		<path class="st3" d="M68.4,79.1c0-0.1,0-0.2,0-0.3c-0.7-0.2-1.5-0.5-2.2-0.8c-9.4-4-15.6-13.1-15.8-23.3h1.9c0.1,3,0.7,6,1.9,8.8
			c2.5,5.7,7,10.3,12.8,12.7c0.5,0.2,1.1,0.4,1.7,0.6c0.3-0.9,0.7-1.8,1.3-2.6c-0.6-0.2-1.2-0.4-1.9-0.7c-5.1-2.1-9.1-6.1-11.3-11.2
			c-1.1-2.6-1.7-5.4-1.7-8.2c0-1.3-1.1-2.4-2.4-2.4h0H50c-1.3,0-2.4,1.1-2.4,2.4v0c0,11.5,6.9,21.9,17.5,26.5c1.3,0.5,2.6,1,3.9,1.3
			C68.6,81.1,68.4,80.1,68.4,79.1z"/>
		<path class="st3" d="M77.9,86.2v0.6c-0.5,0.1-1.1,0.2-1.6,0.2c-0.5,0-1.1-0.1-1.6-0.2v-0.6c0.5,0.2,1,0.3,1.6,0.3
			C76.8,86.5,77.4,86.4,77.9,86.2z"/>
		<path class="st4" d="M51.1,52.9c0,0-1-14.2,11.2-20.3"/>
		<path class="st3" d="M66.4,32.5c0,2.3-1.9,4.2-4.2,4.2c-1.8,0-3.4-1.1-3.9-2.8c-0.2-0.4-0.2-0.9-0.2-1.4c0-0.3,0-0.6,0.1-0.9l0,0
			c0.5-2.2,2.8-3.6,5-3.1C65,28.8,66.4,30.5,66.4,32.5L66.4,32.5z"/>
		<path class="st4" d="M100.9,52.9c0,0,1-14.2-11.2-20.3"/>
		<path class="st3" d="M85.7,32.5c0,2.3,1.9,4.2,4.2,4.2c1.8,0,3.4-1.1,3.9-2.8c0.2-0.4,0.3-0.9,0.2-1.4c0-0.3,0-0.6-0.1-0.9l0,0
			c-0.5-2.2-2.8-3.6-5-3.1C87,28.8,85.7,30.5,85.7,32.5L85.7,32.5z"/>
	</g>
</g>
</svg>
