<?xml version="1.0" encoding="utf-8"?>
<!-- Generator: Adobe Illustrator 24.0.3, SVG Export Plug-In . SVG Version: 6.00 Build 0)  -->
<svg version="1.1" id="Layer_1" xmlns="http://www.w3.org/2000/svg" xmlns:xlink="http://www.w3.org/1999/xlink" x="0px" y="0px"
	 viewBox="0 0 148 148" style="enable-background:new 0 0 148 148;" xml:space="preserve">
<style type="text/css">
	.st0{fill:#FFF9F3;}
	.st1{fill:#EAD8C5;}
	.st2{fill:#C68E02;}
	.st3{fill:#FFB03B;}
</style>
<title>time2</title>
<g id="Layer_2_1_">
	<g id="Layer_1-2">
		<circle class="st0" cx="74" cy="74" r="74"/>
		<path class="st1" d="M105.2,79.2c0-7.3-2.5-14.4-7.2-20.1c-4.6,12.1-16.3,20.1-29.2,20.1c-9.3,0-18.1,4.1-24,11.2
			c6.2,16.1,24.3,24.1,40.4,17.9C97.2,103.7,105.2,92.2,105.2,79.2L105.2,79.2z"/>
		<path class="st2" d="M98,59.2c-0.8,2.2-1.9,4.2-3.2,6.2c7.6,11.5,4.5,27-7.1,34.6s-27,4.5-34.6-7.1c-1.5-2.2-2.6-4.7-3.3-7.2
			c-1.8,1.4-3.5,3-5,4.8c6.2,16.1,24.3,24.1,40.4,17.9c16.1-6.2,24.1-24.3,17.9-40.4C101.9,64.8,100.2,61.8,98,59.2z"/>
		<path class="st3" d="M80.2,45.2H67.8c-0.8,0-1.5-0.7-1.5-1.5v-6.2c0-0.8,0.7-1.5,1.5-1.5h12.5c0.8,0,1.5,0.7,1.5,1.5v6.2
			C81.8,44.6,81.1,45.2,80.2,45.2z M69.2,42.2h9.5V39h-9.5V42.2z"/>
		<path class="st3" d="M75.6,49.5L75.6,49.5c-1.1-0.1-2.1-0.1-3.1,0c-0.4,0-0.8-0.1-1.1-0.4c-0.3-0.3-0.5-0.7-0.4-1.1v-4.2
			c0-0.8,0.7-1.5,1.5-1.5h3.1c0.8,0,1.5,0.7,1.5,1.5V48C77.1,48.8,76.4,49.5,75.6,49.5L75.6,49.5z M74,46.5L74,46.5l0.1-1.2h-0.1
			L74,46.5L74,46.5z"/>
		<path class="st3" d="M97.2,59.8L97.2,59.8c-0.4,0-0.8-0.2-1.1-0.5c-0.3-0.4-0.7-0.7-1-1.1c-0.3-0.4-0.7-0.7-1.1-1
			c-0.3-0.3-0.5-0.7-0.5-1.1c0-0.4,0.1-0.8,0.4-1.1l4.4-4.5c0.6-0.6,1.5-0.6,2.1,0l2.2,2.2c0.6,0.6,0.6,1.5,0,2.1l-4.4,4.5
			C98,59.6,97.6,59.8,97.2,59.8z M97.1,56L97.1,56L97.1,56L97.1,56l2.3-2.3l-0.1-0.1L97.1,56z"/>
		<path class="st3" d="M71.4,83.3c-0.4,0-0.8-0.2-1.1-0.4c-0.6-0.6-0.6-1.5,0-2.1c0,0,0,0,0,0l15.1-15.1c0.6-0.6,1.6-0.5,2.1,0.1
			c0.5,0.6,0.5,1.5,0,2L72.5,82.9C72.2,83.1,71.8,83.3,71.4,83.3z"/>
		<path class="st3" d="M76.5,83.3c-0.4,0-0.8-0.2-1.1-0.4L65.4,72.8c-0.6-0.6-0.5-1.6,0.1-2.1c0.6-0.5,1.5-0.5,2,0l10.1,10.1
			c0.6,0.6,0.6,1.5,0,2.1c0,0,0,0,0,0C77.3,83.1,76.9,83.3,76.5,83.3z"/>
		<path class="st3" d="M74,112c-18.1,0-32.8-14.7-32.8-32.8S55.9,46.5,74,46.5s32.8,14.7,32.8,32.8C106.7,97.3,92.1,112,74,112z
			 M74,49.5c-16.4,0-29.8,13.3-29.8,29.8S57.6,109,74,109s29.8-13.3,29.8-29.8C103.7,62.8,90.4,49.5,74,49.5z"/>
		<path class="st3" d="M74,105.8c-14.6,0-26.5-11.9-26.5-26.5S59.4,52.7,74,52.7s26.5,11.9,26.5,26.5
			C100.5,93.9,88.6,105.7,74,105.8z M74,55.7c-13,0-23.5,10.5-23.5,23.5S61,102.8,74,102.8s23.5-10.5,23.5-23.5
			C97.5,66.3,87,55.8,74,55.7z"/>
	</g>
</g>
</svg>
