<?xml version="1.0" encoding="utf-8"?>
<!-- Generator: Adobe Illustrator 24.0.3, SVG Export Plug-In . SVG Version: 6.00 Build 0)  -->
<svg version="1.1" id="Layer_1" xmlns="http://www.w3.org/2000/svg" xmlns:xlink="http://www.w3.org/1999/xlink" x="0px" y="0px"
	 viewBox="0 0 148 148" style="enable-background:new 0 0 148 148;" xml:space="preserve">
<style type="text/css">
	.st0{fill:#FCF0F1;}
	.st1{fill:#94090D;}
	.st2{fill:#CE5B67;}
	.st3{fill:#E5AAAE;}
</style>
<title>location2</title>
<g id="Layer_2_1_">
	<g id="Layer_1-2">
		<circle class="st0" cx="74" cy="74" r="74"/>
		<path class="st1" d="M71.9,41.5h0.6l0,0H71.9z M71.9,41.5h0.6l0,0H71.9z"/>
		<path class="st1" d="M63.7,44.2c0.5-0.3,1.1-0.6,1.6-0.8C64.7,43.6,64.2,43.8,63.7,44.2z M66.8,82.2c0.5,0.2,1,0.3,1.5,0.5
			C67.8,82.4,67.3,82.3,66.8,82.2L66.8,82.2z M82.7,43.3c0.6,0.2,1.1,0.5,1.6,0.8C83.8,43.8,83.3,43.6,82.7,43.3z"/>
		<path class="st2" d="M101.3,69.8c-1.3,3.4-2.9,6.7-4.9,9.8c-7,11.5-15,22.5-22.5,33.6C66.3,102,58.3,91,51.3,79.5
			c-1.8-2.8-3.4-5.9-4.6-9c2.7-1.5,5.7-2.6,8.9-3c3.7,10.1,14.8,15.3,24.9,11.7c4.1-1.5,7.5-4.2,9.8-7.9
			C94,71.4,97.7,70.8,101.3,69.8z"/>
		<path class="st3" d="M90.3,71.3c-5.7,9.1-17.8,11.8-26.8,6.1c-3.7-2.3-6.4-5.8-7.9-9.9c5-0.8,11.4-0.5,19.4,1.6
			C79.9,70.6,85.1,71.3,90.3,71.3z"/>
		<path class="st1" d="M75.5,41.5L75.5,41.5h0.6H75.5z M75.5,41.5L75.5,41.5h0.6H75.5z"/>
		<path class="st1" d="M95.6,40.8c-5.7-5.7-13.5-9-21.6-8.9l0,0c-16.8,0-30.5,13.6-30.5,30.4c0,0,0,0,0,0.1c0,7,2.7,12.8,6.7,19.4
			c4.9,8.1,10.4,16,15.7,23.7c2.3,3.3,4.6,6.6,6.8,10c0.2,0.3,0.5,0.5,0.8,0.6h0.2H74h0.2h0.2c0.3-0.1,0.6-0.3,0.8-0.6
			c2.3-3.3,4.6-6.6,6.8-10c5.3-7.7,10.8-15.6,15.7-23.7c4-6.5,6.7-12.3,6.7-19.4C104.5,54.3,101.3,46.5,95.6,40.8z M74,44.5L74,44.5
			c9.9,0,17.9,8.1,17.9,18s-8.1,17.9-18,17.9S56,72.2,56,62.3c0-4.7,1.9-9.3,5.3-12.6C64.7,46.3,69.2,44.5,74,44.5z M52.8,80.2
			c-3.7-6.1-6.2-11.5-6.2-17.8c0-14.6,11.4-26.6,26-27.4v6.5h-0.6l-0.8,0.1c-1.4,0.2-2.7,0.5-4.1,1c-0.6,0.2-1.2,0.4-1.7,0.7
			s-1.1,0.5-1.6,0.8c-0.3,0.2-0.5,0.3-0.8,0.5s-0.5,0.3-0.8,0.5s-0.5,0.3-0.7,0.5c-0.8,0.6-1.5,1.2-2.2,1.9c-8,8-8.2,21-0.4,29.2
			c0.5,0.5,1,1,1.6,1.5l0.8,0.7c0.3,0.2,0.6,0.4,0.9,0.6s0.5,0.3,0.8,0.5s0.8,0.5,1.1,0.7c0.4,0.2,0.5,0.3,0.8,0.4l0.1,0.1
			c0.3,0.2,0.6,0.3,0.9,0.4l0.7,0.3c0.1,0.1,0.3,0.1,0.4,0.2c0.5,0.2,1,0.3,1.5,0.5c0.8,0.2,1.5,0.4,2.3,0.5l0.8,0.1
			c0,0,0.1,0,0.1,0c0.3,0,0.6,0.1,0.8,0.1h0.1v26.3c-1.3-2-2.7-4-4.1-5.9C63.1,96.1,57.7,88.2,52.8,80.2z M95.2,80.2
			c-4.9,8-10.4,15.9-15.6,23.6c-1.4,2-2.7,4-4.1,5.9V83.3h0.1c0.3,0,0.6,0,0.8-0.1c0,0,0.1,0,0.1,0l0.8-0.1c0.8-0.1,1.5-0.3,2.2-0.5
			c0.5-0.1,1.1-0.3,1.6-0.5c1.3-0.5,2.5-1,3.7-1.8l0.5-0.3c0.2-0.2,0.5-0.3,0.7-0.5s0.6-0.4,0.8-0.6l0.8-0.7c0.6-0.5,1.1-1,1.6-1.5
			c7.8-8.3,7.6-21.2-0.4-29.2c-0.7-0.7-1.4-1.3-2.2-1.9c-0.2-0.2-0.5-0.3-0.7-0.5s-0.5-0.3-0.8-0.5s-0.5-0.3-0.8-0.5
			c-0.5-0.3-1.1-0.6-1.6-0.8s-1.1-0.5-1.7-0.7c-1.3-0.5-2.7-0.8-4.1-1l-0.8-0.1h-0.6V35c14.6,0.8,26,12.8,26,27.4
			C101.5,68.7,99,74.1,95.2,80.2z"/>
		<path class="st1" d="M83.6,52.6V71c0,0.5-0.4,0.9-0.9,0.9c0,0,0,0,0,0h-3.9c-0.5,0-0.9-0.4-0.9-0.9c0,0,0,0,0,0v-6.1
			c0-0.5-0.4-0.9-0.9-0.9h-6c-0.5,0-0.9,0.4-0.9,0.9V71c0,0.5-0.4,0.9-0.9,0.9c0,0,0,0,0,0h-3.9c-0.5,0-0.9-0.4-0.9-0.9c0,0,0,0,0,0
			V52.6c0-0.5,0.4-0.9,0.9-0.9c0,0,0,0,0,0h3.9c0.5,0,0.9,0.4,0.9,0.9c0,0,0,0,0,0v5.8c0,0.5,0.4,0.9,0.9,0.9h6
			c0.5,0,0.9-0.4,0.9-0.9v-5.8c0-0.5,0.4-0.9,0.9-0.9c0,0,0,0,0,0h3.9C83.2,51.7,83.6,52.1,83.6,52.6C83.6,52.6,83.6,52.6,83.6,52.6
			z"/>
	</g>
</g>
</svg>
