<?xml version="1.0" encoding="utf-8"?>
<!-- Generator: Adobe Illustrator 16.0.0, SVG Export Plug-In . SVG Version: 6.00 Build 0)  -->
<svg version="1.1" id="Layer_1" xmlns="http://www.w3.org/2000/svg" xmlns:xlink="http://www.w3.org/1999/xlink" x="0px" y="0px"
	 width="753.6px" height="753.6px" viewBox="0 0 753.6 753.6" enable-background="new 0 0 753.6 753.6" xml:space="preserve">
<g>
	<circle fill="#C9E9F9" cx="376.8" cy="376.8" r="374.482"/>
	<g>
		<g>
			<defs>
				<path id="SVGID_1_" d="M251.785,182.821c-24.631,21.526-54.377,88.971-5.638,173.961
					c39.339,68.592,110.905,97.361,110.905,97.361c-41.021-82.82-50.215-132.331-32.903-188.428
					c15.811-51.21,75.685-74.663,75.685-74.663c-18.933-25.394-46.107-36.578-73.766-36.578
					C299.456,154.475,272.399,164.82,251.785,182.821"/>
			</defs>
			<clipPath id="SVGID_2_">
				<use xlink:href="#SVGID_1_"  overflow="visible"/>
			</clipPath>
			
				<linearGradient id="SVGID_3_" gradientUnits="userSpaceOnUse" x1="78.0923" y1="679.1895" x2="82.1551" y2="679.1895" gradientTransform="matrix(16.5526 72.8313 72.8313 -16.5526 -50489.25 5731.5938)">
				<stop  offset="0" style="stop-color:#91BE4A"/>
				<stop  offset="1" style="stop-color:#5A890E"/>
			</linearGradient>
			<polygon clip-path="url(#SVGID_2_)" fill="url(#SVGID_3_)" points="389.892,110.727 464.598,439.426 207.349,497.891 
				132.644,169.192 			"/>
		</g>
		<g>
			<defs>
				<path id="SVGID_4_" d="M492.486,252.522c-43.092,38.144-56.431,46.439-94.824,71.202c-33.212,21.417-51.147,67.6-43.783,105.48
					c4.788,24.618,30.979,76.154,30.979,76.154s-10.353-60.625,23.905-80.109c36.796-20.929,84.488-53.797,104.354-97.39
					c44.38-97.391,2.92-137.361,2.92-137.361S531.825,217.701,492.486,252.522"/>
			</defs>
			<clipPath id="SVGID_5_">
				<use xlink:href="#SVGID_4_"  overflow="visible"/>
			</clipPath>
			
				<linearGradient id="SVGID_6_" gradientUnits="userSpaceOnUse" x1="76.2329" y1="674.7344" x2="80.2951" y2="674.7344" gradientTransform="matrix(31.3829 -73.6142 -73.6142 -31.3829 47663.5625 27289.9375)">
				<stop  offset="0" style="stop-color:#27AAE1"/>
				<stop  offset="1" style="stop-color:#2B3990"/>
			</linearGradient>
			<polygon clip-path="url(#SVGID_5_)" fill="url(#SVGID_6_)" points="232.932,456.938 378.96,114.39 671.086,238.924 
				525.045,581.472 			"/>
		</g>
		<g>
			<defs>
				<path id="SVGID_7_" d="M358.431,542.442c-7.741,22.246,4.011,46.557,26.257,54.298c22.246,7.742,46.558-4.006,54.299-26.252
					c7.742-22.245-4.011-46.551-26.257-54.305c-4.637-1.614-9.363-2.385-14.021-2.385
					C381.064,513.799,364.558,524.838,358.431,542.442"/>
			</defs>
			<clipPath id="SVGID_8_">
				<use xlink:href="#SVGID_7_"  overflow="visible"/>
			</clipPath>
			
				<linearGradient id="SVGID_9_" gradientUnits="userSpaceOnUse" x1="76.2324" y1="674.4551" x2="80.2993" y2="674.4551" gradientTransform="matrix(31.3829 -73.6142 -73.6142 -31.3829 47674 27294.4375)">
				<stop  offset="0" style="stop-color:#27AAE1"/>
				<stop  offset="1" style="stop-color:#2B3990"/>
			</linearGradient>
			<polygon clip-path="url(#SVGID_8_)" fill="url(#SVGID_9_)" points="317.972,590.541 365.457,479.154 479.445,527.752 
				431.953,639.135 			"/>
		</g>
		<g>
			<defs>
				<path id="SVGID_10_" d="M399.834,191.053h-0.006c-0.118,0.043-59.886,23.501-75.679,74.663c-0.911,2.968-1.71,5.904-2.48,8.839
					c82.958-84.168,174.396-38.062,132.272,11.717c4.726-4.06,32.93-28.778,38.545-33.749c35.4-31.33,26.168-56.484,23.957-61.211
					c-11.489-14.156-28.356-18.87-45.702-18.87C436.252,172.436,399.834,191.053,399.834,191.053"/>
			</defs>
			<clipPath id="SVGID_11_">
				<use xlink:href="#SVGID_10_"  overflow="visible"/>
			</clipPath>
			
				<linearGradient id="SVGID_12_" gradientUnits="userSpaceOnUse" x1="80.7397" y1="677.4922" x2="84.802" y2="677.4922" gradientTransform="matrix(48.6245 0 0 -48.6245 -3604.2813 33172.0625)">
				<stop  offset="0" style="stop-color:#2B3990"/>
				<stop  offset="1" style="stop-color:#27AAE1"/>
			</linearGradient>
			<rect x="321.669" y="172.436" clip-path="url(#SVGID_11_)" fill="url(#SVGID_12_)" width="206.218" height="113.836"/>
		</g>
	</g>
</g>
</svg>
